<svg width="438" height="438" viewBox="0 0 438 438" fill="none" xmlns="http://www.w3.org/2000/svg">
<g clip-path="url(#clip0_305_139)">
<rect width="438" height="438" fill="white" fill-opacity="0.28"/>
<path d="M179.841 174.238L179.846 158.01L256.301 158.034L256.296 174.261L227.796 174.252L227.772 251.116L208.318 251.11L208.341 174.246L179.841 174.238Z" fill="#FF9314"/>
<path d="M167.57 189.007L191.842 189.014L217.46 251.567L218.551 251.568L244.206 189.03L268.479 189.037L268.45 282.128L249.36 282.122L249.378 221.532L248.605 221.531L224.496 281.66L211.496 281.656L187.424 221.285L186.651 221.285L186.632 282.103L167.541 282.097L167.57 189.007Z" fill="#FF6A00"/>
<path d="M344.494 211.152C344.491 220.264 311.229 172.641 227.006 172.616C142.782 172.59 79.9951 207.683 79.9979 198.571C79.9685 294.571 142.792 139.59 227.016 139.616C311.239 139.641 344.497 202.039 344.494 211.152Z" fill="#FF3D00"/>
<ellipse cx="80" cy="397" rx="106" ry="95" fill="#FA2222" fill-opacity="0.63"/>
<ellipse cx="403" cy="42" rx="89" ry="58" fill="#FF6A00" fill-opacity="0.88"/>
</g>
<defs>
<clipPath id="clip0_305_139">
<rect width="438" height="438" fill="white"/>
</clipPath>
</defs>
</svg>
