<svg width="53" height="33" viewBox="0 0 53 33" fill="none" xmlns="http://www.w3.org/2000/svg">
<g clip-path="url(#clip0_305_139)">
<rect width="53" height="33" fill="white" fill-opacity="0.28"/>
<path d="M20.4417 8.78798L20.4426 5.99891L33.5832 6.00293L33.5824 8.79199L28.6839 8.79049L28.6799 22.0014L25.3362 22.0004L25.3402 8.78947L20.4417 8.78798Z" fill="#FF9314"/>
<path d="M34.4125 10.4651L30.6199 10.4639L26.6112 20.2354L26.4408 20.2354L22.4381 10.4614L18.6454 10.4603L18.641 25.0057L21.624 25.0066L21.6268 15.5393L21.7476 15.5393L25.5089 24.9368L27.5402 24.9374L31.3073 15.5068L31.428 15.5068L31.4251 25.0096L34.4081 25.0105L34.4125 10.4651Z" fill="#FF6A00"/>
<path d="M42.7065 14.2936C42.706 15.7315 37.9646 8.21719 25.9582 8.21352C13.9519 8.20986 5.00111 13.7476 5.00155 12.3097C4.99693 27.4577 13.9534 3.00273 25.9598 3.0064C37.9662 3.01006 42.7069 12.8557 42.7065 14.2936Z" fill="#FF3D00"/>
</g>
<defs>
<clipPath id="clip0_305_139">
<rect width="53" height="33" fill="white"/>
</clipPath>
</defs>
</svg>
