<svg width="1077" height="807" viewBox="0 0 1077 807" fill="none" xmlns="http://www.w3.org/2000/svg">
<g clip-path="url(#clip0_310_136)">
<rect width="1077" height="807" fill="#FFD86E"/>
<path d="M1613.5 519C1613.5 649.212 1531.88 767.301 1399.49 852.909C1267.12 938.507 1084.17 991.5 882 991.5C679.833 991.5 496.876 938.507 364.505 852.909C232.12 767.301 150.5 649.212 150.5 519C150.5 388.788 232.12 270.699 364.505 185.091C496.876 99.4927 679.833 46.5 882 46.5C1084.17 46.5 1267.12 99.4927 1399.49 185.091C1531.88 270.699 1613.5 388.788 1613.5 519Z" fill="#D9D9D9" fill-opacity="0.05" stroke="white" stroke-width="3"/>
<path d="M1618.5 518C1618.5 648.212 1536.88 766.301 1404.49 851.909C1272.12 937.507 1089.17 990.5 887 990.5C684.833 990.5 501.876 937.507 369.505 851.909C237.12 766.301 155.5 648.212 155.5 518C155.5 387.788 237.12 269.699 369.505 184.091C501.876 98.4927 684.833 45.5 887 45.5C1089.17 45.5 1272.12 98.4927 1404.49 184.091C1536.88 269.699 1618.5 387.788 1618.5 518Z" fill="#D9D9D9" fill-opacity="0.05" stroke="white" stroke-width="3"/>
</g>
<defs>
<clipPath id="clip0_310_136">
<rect width="1077" height="807" fill="white"/>
</clipPath>
</defs>
</svg>
